<svg id="Image" xmlns="http://www.w3.org/2000/svg" width="87.311" height="70.993" viewBox="0 0 87.311 70.993">
  <g id="bg_shape" data-name="bg shape">
    <rect id="icon_bg" data-name="icon bg" width="87.311" height="70.992" fill="none"/>
    <path id="Path_17611" data-name="Path 17611" d="M65.868,8.131a8.137,8.137,0,0,1-8.124,8.124H46.165a6.887,6.887,0,0,1-5.531,10.991H6.89a6.887,6.887,0,1,1,0-13.774h5.8A8.127,8.127,0,0,1,18.807,0H57.744a8.126,8.126,0,0,1,8.124,8.131" fill="rgba(27,50,91,0.11)"/>
    <path id="Path_17612" data-name="Path 17612" d="M80.654,63.214H79.8a6.658,6.658,0,0,1-.918,8.264,6.838,6.838,0,0,1-1.64,1.206,6.269,6.269,0,0,1-2.776,11.888H58.518a6.27,6.27,0,0,1-4.437-10.7,5.938,5.938,0,0,1,.491-.442H39.2a6.655,6.655,0,0,1-1.766-13.073,8.928,8.928,0,0,1-2.04-3.645H13.16a5.65,5.65,0,1,1,0-11.3H80.654a8.9,8.9,0,0,1,0,17.8" transform="translate(-2.246 -13.58)" fill="rgba(27,50,91,0.11)"/>
  </g>
  <g id="circle" transform="translate(-138.845 -286.967)">
    <circle id="d" cx="2" cy="2" r="2" transform="translate(213 345)" fill="#ee2934"/>
    <g id="c" transform="translate(153 290)" fill="#fff" stroke="#ee2934" stroke-width="1">
      <circle cx="3" cy="3" r="3" stroke="none"/>
      <circle cx="3" cy="3" r="2.5" fill="none"/>
    </g>
    <g id="b" transform="translate(157 346)" fill="#fff" stroke="#ee2934" stroke-width="1">
      <circle cx="2" cy="2" r="2" stroke="none"/>
      <circle cx="2" cy="2" r="1.5" fill="none"/>
    </g>
    <circle id="a" cx="1.5" cy="1.5" r="1.5" transform="translate(149 297)" fill="#ee2934"/>
  </g>
  <g id="delate_front" data-name="delate front" transform="translate(22.618 7.669)">
    <path id="Path_17613" data-name="Path 17613" d="M44.834,20.521,3.9,11.767A1.784,1.784,0,0,1,2.534,9.649l.72-3.369A1.783,1.783,0,0,1,5.37,4.908L46.3,13.661a1.785,1.785,0,0,1,1.372,2.118l-.72,3.369a1.785,1.785,0,0,1-2.118,1.372" transform="translate(-0.594 -1.157)" fill="#ee2934"/>
    <rect id="red_noch" data-name="red noch" width="4.965" height="15.203" transform="translate(18.264 5.755) rotate(-77.933)" fill="#ee2934"/>
    <path id="Path_17614" data-name="Path 17614" d="M52.146,19.155a4.574,4.574,0,0,0-3.515-5.429l5.216,1.116a4.573,4.573,0,0,1,3.515,5.428l-.871,4.078,0,.008a1.161,1.161,0,0,1-1.382.888l-5.217-1.116.009,0a1.161,1.161,0,0,0,1.375-.9Z" transform="translate(-11.573 -3.263)" fill="#97070f"/>
    <path id="Path_17615" data-name="Path 17615" d="M44.038,11.3,35.05,9.236l.212-.921a5.079,5.079,0,0,0-3.807-6.08L22.3.13A5.083,5.083,0,0,0,16.22,3.938l-.212.922L7.021,2.793A5.11,5.11,0,0,0,.9,6.627l-.872,3.8A1.211,1.211,0,0,0,.94,11.874L33.3,19.313H1.987A1.211,1.211,0,0,0,.782,20.638L4.311,57.684A4.747,4.747,0,0,0,9.056,62H36.907a4.748,4.748,0,0,0,4.745-4.316l3.4-35.671.5.114a1.242,1.242,0,0,0,.273.03A1.21,1.21,0,0,0,47,21.218l.873-3.8a5.118,5.118,0,0,0-3.832-6.12Zm-4.8,46.153a2.337,2.337,0,0,1-2.336,2.124H9.056A2.337,2.337,0,0,1,6.72,57.455l-3.4-35.719H42.644ZM18.579,4.48a2.662,2.662,0,0,1,3.177-1.99l9.157,2.1A2.653,2.653,0,0,1,32.9,7.772l-.211.922L18.368,5.4Zm26.93,12.4-.6,2.616L2.662,9.786l.6-2.616A2.686,2.686,0,0,1,6.479,5.154l26.85,6.171h0L43.5,13.663A2.687,2.687,0,0,1,45.51,16.88ZM30.8,55.767l1.479-30.338a1.21,1.21,0,1,1,2.418.117L33.214,55.884a1.211,1.211,0,0,1-1.208,1.153l-.06,0a1.211,1.211,0,0,1-1.15-1.268m-18.048.117L11.269,25.547a1.211,1.211,0,1,1,2.419-.118l1.478,30.338a1.211,1.211,0,0,1-1.15,1.269l-.06,0a1.211,1.211,0,0,1-1.208-1.153m9.022-.059V25.488a1.21,1.21,0,1,1,2.421,0V55.826a1.21,1.21,0,1,1-2.421,0Z"/>
    <rect id="bg_delete" data-name="bg delete" width="48" height="62" transform="translate(0 0)" fill="none"/>
  </g>
</svg>
