<svg id="intro_icon" xmlns="http://www.w3.org/2000/svg" width="67.992" height="38.99" viewBox="0 0 67.992 38.99">
  <rect id="Rectangle_17841" data-name="Rectangle 17841" width="67.992" height="38.99" fill="none"/>
  <path id="Path_14590" data-name="Path 14590" d="M19.951,17.621h7.856A1.663,1.663,0,0,0,29.57,16.08a1.689,1.689,0,0,0-.1-.648,1.632,1.632,0,0,0-1.737-1.086H20.379c-.436,0-.864.008-1.3,0A1.539,1.539,0,0,1,17.5,12.839v-.025a1.525,1.525,0,0,1,1.378-1.667h.1c.188-.017.385-.017.573-.017H33.182a4.972,4.972,0,0,0,.933-.067,1.543,1.543,0,0,0,1.232-1.717A1.554,1.554,0,0,0,33.772,7.88c-1.9-.017-3.8,0-5.691-.017a4.122,4.122,0,0,1-.642-.051,1.6,1.6,0,0,1,.214-3.191H27.7c1.6-.008,3.192-.008,4.792,0a1.4,1.4,0,0,0,1-.379A15.926,15.926,0,0,1,43.186.06C50.178-.42,55.6,2.248,59.155,8.1c5.691,9.361.026,21.147-10.723,23.5a17.029,17.029,0,0,1-8.909-.413A16,16,0,0,1,33.447,27.7a1.31,1.31,0,0,0-.933-.362q-5.148.013-10.3,0a1.606,1.606,0,1,1-.257-3.2h0c.18,0,.359-.017.539-.017h8.934a1.6,1.6,0,0,0,1.729-1.027A1.566,1.566,0,0,0,32.292,21a1.752,1.752,0,0,0-.719-.126c-1.421-.025-2.833,0-4.253,0q-7.42,0-14.848-.008a3.939,3.939,0,0,1-.89-.084,1.51,1.51,0,0,1-1.138-1.8,1.53,1.53,0,0,1,1.617-1.339h7.9Z" transform="translate(2.595 4)" fill="#e60b27"/>
  <path id="Path_14591" data-name="Path 14591" d="M6.893,13.229h5.094a1.475,1.475,0,0,1,1.462.8,1.716,1.716,0,0,1-.1,1.834,1.428,1.428,0,0,1-1.228.657H1.539A1.576,1.576,0,0,1,0,14.933v-.086a1.571,1.571,0,0,1,1.54-1.617H6.893" transform="translate(4.001 1.875)" fill="#e60b27"/>
  <path id="Path_14592" data-name="Path 14592" d="M21.375,8.783c-.848,0-1.7.035-2.551-.009A1.619,1.619,0,0,1,17.18,7.192a1.57,1.57,0,0,1,.086-.528A1.525,1.525,0,0,1,18.78,5.5c1.626-.026,3.252-.035,4.878,0a1.493,1.493,0,0,1,1.47,1.038,1.6,1.6,0,0,1-1.367,2.223c-.8.052-1.6.017-2.4.017v.017" transform="translate(1.526 3.26)" fill="#e60b27"/>
  <path id="Path_14593" data-name="Path 14593" d="M43.222,14.4,59.171,7.05,51.015,15.8l5.319,3.561L40.61,26.845l8.043-8.879L43.213,14.4Z" transform="translate(-2.028 3.047)" fill="#0a223f"/>
  <path id="Path_14594" data-name="Path 14594" d="M44.682,14.755,60.631,7.4l-8.156,8.746,5.319,3.561L42.07,27.195l8.043-8.879-5.44-3.561Z" transform="translate(-2.226 3)" fill="#0a223f" opacity="0.2"/>
</svg>
