<svg id="Image" xmlns="http://www.w3.org/2000/svg" width="88.324" height="73.788" viewBox="0 0 88.324 73.788">
  <g id="bg_shape" data-name="bg shape">
    <rect id="bg_shape_bg" data-name="bg shape bg" width="87.311" height="70.992" fill="none"/>
    <path id="Path_17611" data-name="Path 17611" d="M65.868,8.131a8.137,8.137,0,0,1-8.124,8.124H46.165a6.887,6.887,0,0,1-5.531,10.991H6.89a6.887,6.887,0,1,1,0-13.774h5.8A8.127,8.127,0,0,1,18.807,0H57.744a8.126,8.126,0,0,1,8.124,8.131" fill="rgba(27,50,91,0.11)"/>
    <path id="Path_17612" data-name="Path 17612" d="M80.654,63.214H79.8a6.658,6.658,0,0,1-.918,8.264,6.838,6.838,0,0,1-1.64,1.206,6.269,6.269,0,0,1-2.776,11.888H58.518a6.27,6.27,0,0,1-4.437-10.7,5.938,5.938,0,0,1,.491-.442H39.2a6.655,6.655,0,0,1-1.766-13.073,8.928,8.928,0,0,1-2.04-3.645H13.16a5.65,5.65,0,1,1,0-11.3H80.654a8.9,8.9,0,0,1,0,17.8" transform="translate(-2.246 -13.58)" fill="rgba(27,50,91,0.11)"/>
  </g>
  <g id="logout" transform="translate(26.324 8.788)">
    <rect id="logout_icon_bg" data-name="logout icon bg" width="62" height="65" fill="none"/>
    <path id="Path_17604" data-name="Path 17604" d="M44.81,51.161c.589,5.1.246,8.256.265,13.276.018,4.929-.283,9.939-.265,14.868,0,.772.265,2.509.265,3.281,0,.606-.989,1.111-1.26,1.654-.31.624-1.861-.385-2.515-.625Q31.173,79.871,21.148,75.92a19.863,19.863,0,0,1,0-3.076v-3.2c0-2.093-.015-4.187.005-6.28.041-4.217-.006-8.437-.012-12.654,0-6.824.1-13.651.1-20.469a2.276,2.276,0,0,1,.211-.888c.626-1.157,2.3.053,3.142.366q6.472,2.415,12.952,4.813c1.228.457,2.463.9,3.693,1.354.756.279,1.818.38,2.376.972.833.882.261,2.789.2,3.834-.087,1.531,1.046,3.149,1,4.682-.046,1.362-.511,2.64-.53,4" transform="translate(-19.767 -26.84)" fill="#ee2934"/>
    <path id="Path_17192" data-name="Path 17192" d="M97.775,116.876l-3.581-.885a4.9,4.9,0,0,1-3.42-4.51V68.46a2.239,2.239,0,0,1,.736-1.821,1.984,1.984,0,0,1,1.76-.273l1.131.28v43.891a7.839,7.839,0,0,0,3.374,6.339" transform="translate(-89.387 -64.596)" fill="#97070f"/>
    <path id="Path_17605" data-name="Path 17605" d="M27.425,47.762h2.444c2.4.034,6.289.559,7.408-1.1a3.665,3.665,0,0,0,.35-2.195q.076-6.322.122-12.647.012-1.465,1.7-.937a.305.305,0,0,1,.216.29c.006,4.338-.125,8.752.067,13.105.094,2.174-.477,4.176-2.5,5.11a8.792,8.792,0,0,1-3.386.443q-3.73-.009-7.46.009a.3.3,0,0,0-.3.3q-.021,2.161-.006,4.313a6.967,6.967,0,0,1-.389,2.747c-1.173,2.613-3.605,1.713-5.788.778q-7.131-3.05-14.269-6.093C1.657,50.2.006,48.629,0,44.087Q0,25.105,0,6.127A9.829,9.829,0,0,1,.465,2.491C1.465.275,3.392,0,5.8,0H33.453a10.752,10.752,0,0,1,3.721.424c2.079.91,2.645,2.94,2.566,5.141-.152,4.326-.079,8.685-.061,13.014a.3.3,0,0,1-.188.284c-1.316.534-1.806-.14-1.8-1.334q.036-6.365-.027-12.733C37.644,3.1,36.772,2,35.036,1.99q-4.578-.018-28.72,0c-.045,0-.082.028-.082.062v.005l0,.034a.07.07,0,0,0,.046.046Q14,5.431,21.728,8.712c3.429,1.456,4.338,3.95,4.341,7.555V47.46a.306.306,0,0,0,.307.305ZM6.463,50.052q7.87,3.462,15.819,6.743c.514.211,1.258.244,1.5-.3a3.626,3.626,0,0,0,.316-1.511l-.094-28.195q.031-4.881.055-9.763a11.352,11.352,0,0,0-.465-3.849c-.872-2.039-2.143-2.341-4.526-3.364q-8.138-3.5-16.3-6.957a.3.3,0,0,0-.4.164.256.256,0,0,0-.013.037L2.17,3.73a2.884,2.884,0,0,0-.112.8q-.006,19.977,0,39.957c0,3.511,1.538,4.313,4.4,5.568" fill="#212121"/>
    <path id="Path_17606" data-name="Path 17606" d="M136.558,54.025q-3.639-3.862-7.475-7.528c-.894-.852-1.137-1.615.216-2.317a.3.3,0,0,1,.353.052q4.949,4.826,9.922,9.83c1.079,1.087,1.562,1.5.255,2.8q-4.7,4.64-9.387,9.277c-.869.861-1.569,1.038-2.246-.275a.306.306,0,0,1,.055-.357l8.511-8.551q.414-.415-.173-.415l-23.172.006a.305.305,0,0,1-.283-.2c-.48-1.249.015-1.8,1.207-1.795q11,.022,22-.015.7,0,.219-.513" transform="translate(-78.617 -30.668)" fill="#212121"/>
  </g>
  <g id="circle" transform="translate(-138.845 -286.967)">
    <circle id="delete_icon_bg_c" data-name="delete icon bg c" cx="2" cy="2" r="2" transform="translate(213 345)" fill="#ee2934"/>
    <g id="delete_icon_bg_b" data-name="delete icon bg b" transform="translate(153 290)" fill="#fff" stroke="#ee2934" stroke-width="1">
      <circle cx="3" cy="3" r="3" stroke="none"/>
      <circle cx="3" cy="3" r="2.5" fill="none"/>
    </g>
    <g id="delete_icon_bg_a" data-name="delete icon bg a" transform="translate(157 346)" fill="#fff" stroke="#ee2934" stroke-width="1">
      <circle cx="2" cy="2" r="2" stroke="none"/>
      <circle cx="2" cy="2" r="1.5" fill="none"/>
    </g>
    <circle id="delete_icon_bg" data-name="delete icon bg" cx="1.5" cy="1.5" r="1.5" transform="translate(149 297)" fill="#ee2934"/>
  </g>
</svg>
