<svg id="Component_56_1" data-name="Component 56 – 1" xmlns="http://www.w3.org/2000/svg" xmlns:xlink="http://www.w3.org/1999/xlink" width="247.671" height="246.787" viewBox="0 0 247.671 246.787">
  <defs>
    <clipPath id="clip-path">
      <rect id="Rectangle_1124" data-name="Rectangle 1124" width="48.476" height="9.167" fill="none"/>
    </clipPath>
    <clipPath id="clip-path-2">
      <rect id="Rectangle_1125" data-name="Rectangle 1125" width="33.83" height="20.476" fill="none"/>
    </clipPath>
    <clipPath id="clip-path-3">
      <rect id="Rectangle_1126" data-name="Rectangle 1126" width="33.83" height="11.715" fill="none"/>
    </clipPath>
    <clipPath id="clip-path-4">
      <rect id="Rectangle_1127" data-name="Rectangle 1127" width="20.48" height="22.954" fill="none"/>
    </clipPath>
    <clipPath id="clip-path-5">
      <rect id="Rectangle_1128" data-name="Rectangle 1128" width="32.589" height="18.217" fill="none"/>
    </clipPath>
    <clipPath id="clip-path-6">
      <rect id="Rectangle_1129" data-name="Rectangle 1129" width="24.079" height="24.741" fill="none"/>
    </clipPath>
    <clipPath id="clip-path-8">
      <rect id="Rectangle_1131" data-name="Rectangle 1131" width="2.837" height="1.369" fill="none"/>
    </clipPath>
    <clipPath id="clip-path-9">
      <rect id="Rectangle_1132" data-name="Rectangle 1132" width="150.784" height="154.941" fill="none"/>
    </clipPath>
    <clipPath id="clip-path-10">
      <rect id="Rectangle_1133" data-name="Rectangle 1133" width="7.035" height="17.635" fill="none"/>
    </clipPath>
    <clipPath id="clip-path-11">
      <rect id="Rectangle_1134" data-name="Rectangle 1134" width="74.768" height="39.191" fill="none"/>
    </clipPath>
    <clipPath id="clip-path-12">
      <rect id="Rectangle_1135" data-name="Rectangle 1135" width="23.015" height="29.283" fill="none"/>
    </clipPath>
  </defs>
  <g id="image_1" data-name="image 1" transform="translate(0)">
    <path id="Path_18763" data-name="Path 18763" d="M241.21,282.44,99.352,200.56a9.481,9.481,0,0,0-8.547,0L10.67,246.72c-3.19,1.838-3.193,4.855-.007,6.694L151.5,334.707a8.354,8.354,0,0,0,7.541,0l82.166-47.327c2.351-1.356,2.353-3.577,0-4.935" transform="translate(-3.684 -88.817)" fill="#ebebeb"/>
    <path id="Path_18764" data-name="Path 18764" d="M112.18,405.323l-36.962-7.8L63.7,406.693Z" transform="translate(-28.355 -176.94)" fill="#ee2934"/>
    <g id="Group_17590" data-name="Group 17590" transform="translate(35.349 220.586)" opacity="0.15">
      <g id="Group_17589" data-name="Group 17589">
        <g id="Group_17588" data-name="Group 17588" clip-path="url(#clip-path)">
          <path id="Path_18765" data-name="Path 18765" d="M112.18,405.323l-36.962-7.8L63.7,406.693Z" transform="translate(-63.704 -397.526)" fill="#fff"/>
        </g>
      </g>
    </g>
    <path id="Path_18766" data-name="Path 18766" d="M123.929,395.152,90.1,383.437l3.218-8.761Z" transform="translate(-40.104 -166.77)" fill="#ee2934"/>
    <g id="Group_17593" data-name="Group 17593" transform="translate(49.996 207.907)" opacity="0.15">
      <g id="Group_17592" data-name="Group 17592">
        <g id="Group_17591" data-name="Group 17591" clip-path="url(#clip-path-2)">
          <path id="Path_18767" data-name="Path 18767" d="M123.929,395.152,90.1,383.437l3.218-8.761Z" transform="translate(-90.1 -374.676)" fill="#fff"/>
        </g>
      </g>
    </g>
    <path id="Path_18768" data-name="Path 18768" d="M90.1,390.465l1.883,4.976,31.946,6.739Z" transform="translate(-40.104 -173.797)"/>
    <g id="Group_17596" data-name="Group 17596" transform="translate(49.996 216.667)" opacity="0.72">
      <g id="Group_17595" data-name="Group 17595">
        <g id="Group_17594" data-name="Group 17594" clip-path="url(#clip-path-3)">
          <path id="Path_18769" data-name="Path 18769" d="M90.1,390.465l1.883,4.976,31.946,6.739Z" transform="translate(-90.099 -390.465)" fill="#ee2934"/>
        </g>
      </g>
    </g>
    <path id="Path_18770" data-name="Path 18770" d="M81.638,390.541a.317.317,0,0,0,.2-.131.4.4,0,0,0-.067-.521c-.269-.233-.535-.467-.8-.7a.31.31,0,0,0-.471.047.4.4,0,0,0,.06.521q.4.357.807.71a.32.32,0,0,0,.272.077" transform="translate(-35.799 -173.19)" fill="#455a64"/>
    <path id="Path_18771" data-name="Path 18771" d="M63.556,345.828q-.757-.75-1.484-1.52a.4.4,0,0,1-.019-.524.316.316,0,0,1,.475,0q.718.762,1.467,1.5a.4.4,0,0,1,.035.523.309.309,0,0,1-.183.112.323.323,0,0,1-.29-.093m-3.85-4.178q-.691-.826-1.346-1.672a.392.392,0,0,1,.031-.52.317.317,0,0,1,.474.053q.647.835,1.328,1.648a.4.4,0,0,1-.011.523.314.314,0,0,1-.161.087.329.329,0,0,1-.314-.119m-3.451-4.584c-.4-.6-.8-1.214-1.172-1.823a.388.388,0,0,1,.085-.511.324.324,0,0,1,.468.114c.367.6.756,1.2,1.154,1.8a.389.389,0,0,1-.064.515.3.3,0,0,1-.133.062.333.333,0,0,1-.338-.152M53.3,332.085c-.337-.651-.659-1.312-.958-1.964a.376.376,0,0,1,.144-.492.331.331,0,0,1,.452.178c.295.64.611,1.29.943,1.93a.38.38,0,0,1-.122.5.315.315,0,0,1-.1.038.341.341,0,0,1-.362-.191m-2.358-5.337c-.252-.681-.492-1.381-.713-2.079a.365.365,0,0,1,.2-.463.347.347,0,0,1,.428.244c.218.685.453,1.373.7,2.041a.371.371,0,0,1-.183.476.3.3,0,0,1-.058.018.347.347,0,0,1-.381-.237m-1.683-5.616q-.195-.838-.361-1.69l-.088-.466a.353.353,0,0,1,.258-.423h0a.355.355,0,0,1,.4.306l.086.456q.164.837.356,1.662a.357.357,0,0,1-.241.44l-.013,0a.352.352,0,0,1-.4-.286m-.6-5.446a.363.363,0,0,1-.373-.34c-.078-.724-.141-1.461-.187-2.191a.342.342,0,0,1,.312-.381.367.367,0,0,1,.358.358c.046.719.108,1.444.184,2.155a.35.35,0,0,1-.262.393.21.21,0,0,1-.032,0m-.326-5.8A.373.373,0,0,1,48,309.5c.008-.727.037-1.464.084-2.189a.331.331,0,0,1,.359-.327.379.379,0,0,1,.312.408c-.047.711-.074,1.434-.083,2.147a.344.344,0,0,1-.265.346.309.309,0,0,1-.075,0m.427-5.754a.385.385,0,0,1-.275-.438c.112-.711.244-1.43.394-2.135a.324.324,0,0,1,.4-.26.39.39,0,0,1,.252.454c-.148.692-.277,1.4-.387,2.093a.337.337,0,0,1-.26.289.3.3,0,0,1-.128,0M50,298.558a.394.394,0,0,1-.21-.478c.213-.683.447-1.365.7-2.028a.316.316,0,0,1,.438-.185.4.4,0,0,1,.185.49c-.245.65-.474,1.318-.684,1.987a.329.329,0,0,1-.247.232.306.306,0,0,1-.179-.019" transform="translate(-21.364 -131.677)" fill="#1b2d51"/>
    <path id="Path_18772" data-name="Path 18772" d="M401.617,179.244l-20.481-20.488,11.971,22.954Z" transform="translate(-169.645 -70.663)" fill="#ee2934"/>
    <g id="Group_17599" data-name="Group 17599" transform="translate(211.492 88.093)" opacity="0.15">
      <g id="Group_17598" data-name="Group 17598">
        <g id="Group_17597" data-name="Group 17597" clip-path="url(#clip-path-4)">
          <path id="Path_18773" data-name="Path 18773" d="M401.617,179.244l-20.481-20.488,11.971,22.954Z" transform="translate(-381.137 -158.755)" fill="#fff"/>
        </g>
      </g>
    </g>
    <path id="Path_18774" data-name="Path 18774" d="M381.136,158.755l24.08,18.217,8.509-2.465Z" transform="translate(-169.645 -70.663)" fill="#ee2934"/>
    <g id="Group_17602" data-name="Group 17602" transform="translate(211.492 88.093)" opacity="0.15">
      <g id="Group_17601" data-name="Group 17601">
        <g id="Group_17600" data-name="Group 17600" clip-path="url(#clip-path-5)">
          <path id="Path_18775" data-name="Path 18775" d="M381.136,158.755l24.08,18.217,8.509-2.465Z" transform="translate(-381.137 -158.755)" fill="#fff"/>
        </g>
      </g>
    </g>
    <path id="Path_18776" data-name="Path 18776" d="M405.216,176.972l-3.431,6.524-.168-4.253-20.481-20.488Z" transform="translate(-169.645 -70.662)" fill="#020202"/>
    <g id="Group_17605" data-name="Group 17605" transform="translate(211.492 88.093)" opacity="0.95">
      <g id="Group_17604" data-name="Group 17604">
        <g id="Group_17603" data-name="Group 17603" clip-path="url(#clip-path-6)">
          <path id="Path_18777" data-name="Path 18777" d="M405.216,176.972l-3.431,6.524-.168-4.253-20.481-20.488Z" transform="translate(-381.137 -158.755)" fill="#ee2934"/>
        </g>
      </g>
    </g>
    <g id="Group_17608" data-name="Group 17608" transform="translate(211.492 88.093)" opacity="0.2">
      <g id="Group_17607" data-name="Group 17607">
        <g id="Group_17606" data-name="Group 17606" clip-path="url(#clip-path-6)">
          <path id="Path_18778" data-name="Path 18778" d="M405.216,176.972l-3.431,6.524-.168-4.253-20.481-20.488Z" transform="translate(-381.137 -158.755)"/>
        </g>
      </g>
    </g>
    <path id="Path_18779" data-name="Path 18779" d="M415.938,199.931l-3-3.431,2.837-.822Z" transform="translate(-183.798 -87.097)" fill="#ee2934"/>
    <g id="Group_17611" data-name="Group 17611" transform="translate(229.135 108.581)" opacity="0.2">
      <g id="Group_17610" data-name="Group 17610">
        <g id="Group_17609" data-name="Group 17609" clip-path="url(#clip-path-8)">
          <path id="Path_18780" data-name="Path 18780" d="M415.77,195.678l-2.837.822.479.547Z" transform="translate(-412.933 -195.678)"/>
        </g>
      </g>
    </g>
    <path id="Path_18781" data-name="Path 18781" d="M425.526,201.34a.3.3,0,0,0-.208.084.378.378,0,0,0-.035.495q.308.4.609.8a.294.294,0,0,0,.445.045.377.377,0,0,0,.041-.493q-.3-.405-.614-.808a.3.3,0,0,0-.238-.122" transform="translate(-189.261 -89.617)" fill="#1b2d51"/>
    <path id="Path_18782" data-name="Path 18782" d="M430.33,207.8q.561.836,1.089,1.685a.376.376,0,0,1-.081.488.3.3,0,0,1-.44-.088q-.522-.839-1.076-1.666a.376.376,0,0,1,.065-.491.3.3,0,0,1,.191-.069.305.305,0,0,1,.251.141m2.782,4.59q.484.893.933,1.8a.37.37,0,0,1-.125.476.3.3,0,0,1-.429-.138q-.442-.894-.921-1.775a.374.374,0,0,1,.108-.482.29.29,0,0,1,.166-.05.31.31,0,0,1,.269.169m2.337,4.89c.262.632.512,1.273.744,1.908a.366.366,0,0,1-.174.457.307.307,0,0,1-.412-.193c-.228-.624-.474-1.256-.731-1.878a.368.368,0,0,1,.155-.465.28.28,0,0,1,.134-.033.315.315,0,0,1,.285.2m1.8,5.164c.19.666.365,1.338.52,2a.356.356,0,0,1-.226.428.313.313,0,0,1-.386-.25c-.153-.648-.325-1.309-.511-1.964a.36.36,0,0,1,.206-.441.289.289,0,0,1,.1-.017.322.322,0,0,1,.3.245m1.183,5.383c.106.678.2,1.371.271,2.058a.345.345,0,0,1-.276.39.328.328,0,0,1-.351-.306c-.073-.675-.163-1.355-.267-2.021a.35.35,0,0,1,.258-.406.286.286,0,0,1,.057-.006.328.328,0,0,1,.308.291m.507,5.514q.023.813.018,1.633l-.006.448a.334.334,0,0,1-.318.343h0a.336.336,0,0,1-.309-.357l.006-.438q.005-.806-.018-1.605a.338.338,0,0,1,.306-.362h.013a.333.333,0,0,1,.314.339m-.461,5.156a.343.343,0,0,1,.282.384c-.064.685-.144,1.379-.237,2.064a.323.323,0,0,1-.36.295.347.347,0,0,1-.265-.4c.093-.674.171-1.357.234-2.03a.33.33,0,0,1,.316-.315.186.186,0,0,1,.03,0m-.785,5.429a.352.352,0,0,1,.234.422c-.144.673-.309,1.349-.488,2.012a.313.313,0,0,1-.394.236.358.358,0,0,1-.212-.437c.176-.65.337-1.313.479-1.972a.325.325,0,0,1,.31-.27.286.286,0,0,1,.071.01m-1.473,5.247a.365.365,0,0,1,.173.457c-.236.638-.494,1.278-.765,1.9a.307.307,0,0,1-.422.165.369.369,0,0,1-.148-.468c.266-.613.519-1.24.75-1.866a.319.319,0,0,1,.3-.218.3.3,0,0,1,.118.026m-2.195,4.93a.372.372,0,0,1,.1.482c-.325.592-.67,1.179-1.025,1.747a.3.3,0,0,1-.44.089.376.376,0,0,1-.079-.488c.348-.557.686-1.132,1-1.712a.311.311,0,0,1,.272-.168.291.291,0,0,1,.162.051" transform="translate(-191.288 -92.429)" fill="#1b2d51"/>
    <path id="Path_18783" data-name="Path 18783" d="M94.254,116.1,238.5,229.406c3.621,2.844,3.206,5.859,2.874,8.564s-1.839,6.405-4.932,8.191L157.25,291.883c-3.093,1.786-7.725,1.565-10.346-.493L2.657,178.081c-2.62-2.058-2.874-5.311-2.541-8.016s1.507-6.954,4.6-8.74L83.908,115.6c3.093-1.786,6.7-2.372,10.346.494" transform="translate(0 -50.789)" fill="#37474f"/>
    <path id="Path_18784" data-name="Path 18784" d="M90.018,119.633,8.585,166.649,153.454,280.412,151.9,293.076a8.853,8.853,0,0,1-4.995-1.689L2.657,178.078C.037,176.02-.217,172.768.115,170.062s1.507-6.954,4.6-8.74L83.908,115.6a9.186,9.186,0,0,1,6.765-1.3l-.048.392Z" transform="translate(0 -50.787)" fill="#263238"/>
    <path id="Path_18785" data-name="Path 18785" d="M240.9,231.248,96.9,118.131a7.964,7.964,0,0,0-8.227-.392l-77.3,44.634c-3.324,1.916-3.743,5.3-.929,7.509l143.1,112.411a7.017,7.017,0,0,0,7.259.341l79.42-45.851c2.45-1.413,2.758-3.9.68-5.536" transform="translate(-3.815 -51.981)" fill="#455a64"/>
    <path id="Path_18786" data-name="Path 18786" d="M71.066,266.086a4.894,4.894,0,0,1,1.554,4.041,1.705,1.705,0,0,1-.732,1.358c-.265.146-1.271.749-1.547.9a1.29,1.29,0,0,1-1.447-.266l-11.466-9.007a4.892,4.892,0,0,1-1.554-4.041,1.755,1.755,0,0,1,.681-1.329c.275-.173,1.32-.776,1.594-.929a1.288,1.288,0,0,1,1.449.264Z" transform="translate(-24.858 -114.254)" fill="#455a64"/>
    <path id="Path_18787" data-name="Path 18787" d="M69.528,267.689l-11.466-9.007c-1.033-.811-2.011-.316-2.185,1.1a4.893,4.893,0,0,0,1.553,4.041L68.9,272.834c1.033.811,2.011.317,2.186-1.1a4.895,4.895,0,0,0-1.554-4.041" transform="translate(-24.859 -114.967)" fill="#37474f"/>
    <path id="Path_18788" data-name="Path 18788" d="M34.9,237.679a4.893,4.893,0,0,1,1.554,4.041,1.705,1.705,0,0,1-.732,1.358c-.265.146-1.271.749-1.547.9a1.29,1.29,0,0,1-1.447-.266l-11.466-9.007a4.891,4.891,0,0,1-1.554-4.041,1.755,1.755,0,0,1,.681-1.329c.275-.173,1.32-.776,1.594-.929a1.288,1.288,0,0,1,1.449.264Z" transform="translate(-8.761 -101.61)" fill="#455a64"/>
    <path id="Path_18789" data-name="Path 18789" d="M33.361,239.282l-11.466-9.007c-1.033-.811-2.011-.316-2.186,1.1a4.9,4.9,0,0,0,1.554,4.041l11.466,9.006c1.032.811,2.011.317,2.186-1.1a4.895,4.895,0,0,0-1.554-4.041" transform="translate(-8.761 -102.323)" fill="#37474f"/>
    <path id="Path_18790" data-name="Path 18790" d="M106.194,129.1,240.663,234.726c1.986,1.56,1.7,3.935-.642,5.28l-71.854,41.486a7.54,7.54,0,0,1-7.838-.372L24.9,174.735a2.817,2.817,0,0,1-.454-4.417c.1-.1.2-.207.306-.308a5.772,5.772,0,0,1,.8-.552l20.21-11.669s.588-.342,1.318-.76a2.34,2.34,0,0,1,2.433.115,2.437,2.437,0,0,0,2.524.063l23.555-13.6c.771-.447.909-1.2.3-1.687a.912.912,0,0,1,.062-1.561,1.364,1.364,0,0,1,.132-.082l19.773-11.411.42-.245c2.961-1.708,7.422-1.494,9.927.473" transform="translate(-10.493 -56.737)"/>
    <path id="Path_18791" data-name="Path 18791" d="M49.413,163.006a2.34,2.34,0,0,0-2.433-.115c-.73.417-1.318.76-1.318.76L25.451,175.32a5.812,5.812,0,0,0-.8.552c-.108.1-.2.2-.306.308-.034.035-.055.074-.087.109a3.769,3.769,0,0,0,.941,1.055L160.635,283.729a7.541,7.541,0,0,0,7.838.372l71.854-41.486a4.616,4.616,0,0,0,1.186-.958,3.72,3.72,0,0,0-.944-1.07L106.1,134.958c-2.505-1.968-6.966-2.181-9.927-.473l-.42.245L76.5,145.842s-.3,2.466-.336,2.758a1.246,1.246,0,0,1-.674.872l-23.555,13.6a2.437,2.437,0,0,1-2.524-.063" transform="translate(-10.799 -59.346)" fill="#ebebeb"/>
    <path id="Path_18792" data-name="Path 18792" d="M59.187,205.393a.163.163,0,0,1-.089-.047l-.287-.264-.9.517a.1.1,0,0,1-.135-.014l-.1-.094a.208.208,0,0,1-.046-.055.239.239,0,0,1-.015-.06l-.075-1.494a.126.126,0,0,1,.008-.061.121.121,0,0,1,.052-.045l.124-.072a.165.165,0,0,1,.1-.027.179.179,0,0,1,.1.05l1,.922.2-.114a.158.158,0,0,1,.1-.026.184.184,0,0,1,.093.05l.068.063c.031.028.044.052.042.073s-.021.043-.059.064l-.2.114.287.264c.031.028.044.053.042.074s-.024.044-.063.067l-.151.087a.171.171,0,0,1-.1.028m-.562-.569-.715-.658.064,1.033Z" transform="translate(-25.612 -90.657)" fill="#1b2d51"/>
    <path id="Path_18793" data-name="Path 18793" d="M61.051,203.688a1.658,1.658,0,0,1-.926-.457.965.965,0,0,1-.4-.761.867.867,0,0,1,.509-.642,1.882,1.882,0,0,1,.395-.175,1.334,1.334,0,0,1,.377-.068.08.08,0,0,1,.058.016.075.075,0,0,1,.019.034l.044.163c0,.02,0,.034-.011.04a.2.2,0,0,1-.049.01,1.3,1.3,0,0,0-.554.176.59.59,0,0,0-.345.442.737.737,0,0,0,.309.559,1.248,1.248,0,0,0,.672.351,1,1,0,0,0,.65-.134,1.343,1.343,0,0,0,.2-.142.576.576,0,0,0,.129-.144l-.466-.428-.373.215a.151.151,0,0,1-.1.026.173.173,0,0,1-.092-.05l-.065-.06c-.032-.029-.047-.054-.043-.074s.022-.041.059-.063l.6-.345a.177.177,0,0,1,.116-.027.213.213,0,0,1,.109.06l.665.611a.207.207,0,0,1,.048.057.06.06,0,0,1,0,.052,1.224,1.224,0,0,1-.561.543,1.535,1.535,0,0,1-.975.216" transform="translate(-26.584 -89.727)" fill="#1b2d51"/>
    <path id="Path_18794" data-name="Path 18794" d="M74.587,197.2a.4.4,0,0,1-.119.669.83.83,0,0,1-.921-.068.4.4,0,0,1,.118-.669.832.832,0,0,1,.922.069" transform="translate(-32.675 -87.697)" fill="#1b2d51"/>
    <path id="Path_18795" data-name="Path 18795" d="M72.146,195.906a1.133,1.133,0,0,0-.65,1.213.244.244,0,0,0,.254.15h0c.158,0,.281-.107.255-.219a.792.792,0,0,1,.454-.855,1.611,1.611,0,0,1,1.247-.128.288.288,0,0,0,.352-.131h0c.031-.088-.03-.179-.144-.214a2.3,2.3,0,0,0-1.77.184" transform="translate(-31.813 -87.073)" fill="#1b2d51"/>
    <path id="Path_18796" data-name="Path 18796" d="M70.662,194.706a1.868,1.868,0,0,0-1.07,1.8.234.234,0,0,0,.255.17h0c.154,0,.272-.1.257-.21a1.514,1.514,0,0,1,.87-1.467,3.01,3.01,0,0,1,2.161-.283.286.286,0,0,0,.338-.134c.033-.1-.042-.189-.169-.22a3.692,3.692,0,0,0-2.646.347" transform="translate(-30.971 -86.464)" fill="#1b2d51"/>
    <path id="Path_18797" data-name="Path 18797" d="M42.614,216.57l-.553-.508.956-.552.553.508Z" transform="translate(-18.721 -95.924)" fill="#1b2d51"/>
    <path id="Path_18798" data-name="Path 18798" d="M44.755,214.67l-1.106-1.017.956-.552,1.106,1.017Z" transform="translate(-19.428 -94.852)" fill="#1b2d51"/>
    <path id="Path_18799" data-name="Path 18799" d="M46.9,212.77l-1.66-1.525.956-.552,1.66,1.525Z" transform="translate(-20.135 -93.78)" fill="#1b2d51"/>
    <path id="Path_18800" data-name="Path 18800" d="M49.036,210.869l-2.213-2.034.957-.552,2.212,2.034Z" transform="translate(-20.841 -92.708)" fill="#1b2d51"/>
    <path id="Path_18801" data-name="Path 18801" d="M152.317,147.557a.771.771,0,0,0-.515.058l-3.575,2.058c-.232.134-.227.409.011.628l1.005.924a1.059,1.059,0,0,0,.521.246,1.031,1.031,0,0,0,.251.016.61.61,0,0,0,.264-.074l3.575-2.058c.231-.134.227-.41-.012-.628l-1.005-.924a1.055,1.055,0,0,0-.52-.246m-2.555,3.764a.457.457,0,0,1-.221-.117l-1.006-.924c-.175-.161-.179-.381-.008-.478l3.575-2.058a.326.326,0,0,1,.138-.042.321.321,0,0,1,.08,0,.46.46,0,0,1,.221.117l1.005.924c.176.161.18.381.009.479l-3.575,2.058a.318.318,0,0,1-.219.037" transform="translate(-65.9 -65.67)" fill="#1b2d51"/>
    <path id="Path_18802" data-name="Path 18802" d="M150.019,151.2l1.19,1.094-.562.323a.2.2,0,0,1-.172.006l-.885-.813c-.127-.117-.129-.283-.008-.356Z" transform="translate(-66.539 -67.3)" fill="#1b2d51"/>
    <path id="Path_18803" data-name="Path 18803" d="M150.915,150.623l.669-.388,1.19,1.094-.673.386Z" transform="translate(-67.173 -66.87)" fill="#1b2d51"/>
    <path id="Path_18804" data-name="Path 18804" d="M152.595,149.658l.669-.388,1.193,1.1-.673.385Z" transform="translate(-67.92 -66.44)" fill="#1b2d51"/>
    <path id="Path_18805" data-name="Path 18805" d="M155.023,148.418l.857.788c.158.145.084.334-.189.492l-.226.13-1.19-1.094.534-.308a.244.244,0,0,1,.214-.008" transform="translate(-68.668 -66.052)" fill="#1b2d51"/>
    <path id="Path_18806" data-name="Path 18806" d="M156.783,147.874c.1-.058.345.049.552.239l.187.171c.206.19.3.395.2.457l-.173.113-.946-.876.178-.1" transform="translate(-69.706 -65.813)" fill="#1b2d51"/>
    <path id="Path_18807" data-name="Path 18807" d="M139.055,156.557l2.932-2.5.883,2.414-1.594-.708Z" transform="translate(-61.894 -68.571)" fill="#1b2d51"/>
    <path id="Path_18808" data-name="Path 18808" d="M74.08,166.814l10.8-6.234a2.024,2.024,0,0,1,2.094.055c.512.4.4,1.029-.239,1.4l-10.8,6.234a2.023,2.023,0,0,1-2.093-.055c-.512-.4-.405-1.03.239-1.4" transform="translate(-32.723 -71.357)" fill="#263238"/>
    <path id="Path_18809" data-name="Path 18809" d="M102.809,154.268a2.344,2.344,0,0,1,2.427.116.925.925,0,0,1-.2,1.633,2.341,2.341,0,0,1-2.427-.115.925.925,0,0,1,.2-1.634" transform="translate(-45.49 -68.54)" fill="#263238"/>
    <path id="Path_18810" data-name="Path 18810" d="M127.455,189.953l-.012.007-1.275-1a1.614,1.614,0,0,0-1.665-.161l-1.564.9a.637.637,0,0,0-.018,1.133l1.275,1-.012.007a.487.487,0,0,0-.014.865l2.572,2.02a1.231,1.231,0,0,0,1.272.123l3.271-1.889a.486.486,0,0,0,.014-.865l-2.572-2.02a1.23,1.23,0,0,0-1.271-.123m-4.172.671a.362.362,0,0,1,.011-.644l1.564-.9a.919.919,0,0,1,.947.091l1.275,1-2.521,1.456Z" transform="translate(-54.563 -83.962)" fill="#1b2d51"/>
    <path id="Path_18811" data-name="Path 18811" d="M135.574,241.964c.277.218.251.42-.075.608l-.422.244a.746.746,0,0,1-.9-.043l-11.224-8.817-1.382,4.339c-.1.283-.357.4-.764.338l-.509-.065a.73.73,0,0,1-.421-.18.3.3,0,0,1-.073-.33l1.646-5.161a.582.582,0,0,1,.176-.255,2.107,2.107,0,0,1,.271-.182l.422-.244a.747.747,0,0,1,.9.043Z" transform="translate(-53.313 -103.302)" fill="#1b2d51"/>
    <path id="Path_18812" data-name="Path 18812" d="M136.539,228.107a4.489,4.489,0,0,1-1.026-1.23,2.875,2.875,0,0,1-.393-1.507,2.983,2.983,0,0,1,.559-1.605,5.325,5.325,0,0,1,1.811-1.547,8.7,8.7,0,0,1,2.476-.994,7.993,7.993,0,0,1,2.3-.174,6.61,6.61,0,0,1,2.047.488,7.27,7.27,0,0,1,1.686.976,3.971,3.971,0,0,1,1.471,1.974,5.559,5.559,0,0,1,.042,2.516l-.719,6.524,7.447-4.3a.778.778,0,0,1,.944.045l.282.222q.415.325-.1.62l-9.115,5.263a.747.747,0,0,1-.9-.043l-.283-.222a.677.677,0,0,1-.245-.36,1.388,1.388,0,0,1,.01-.583l.879-7.155a8.062,8.062,0,0,0,.138-1.286,3.1,3.1,0,0,0-.13-.965,2.257,2.257,0,0,0-.412-.763,4.6,4.6,0,0,0-.711-.68,4.85,4.85,0,0,0-2.822-1.066,5.734,5.734,0,0,0-3.161.85,2.838,2.838,0,0,0-1.657,1.97,2.637,2.637,0,0,0,.923,2.149.378.378,0,0,1,.119.381.461.461,0,0,1-.2.254l-.444.257a.684.684,0,0,1-.825-.011" transform="translate(-60.142 -98.38)" fill="#1b2d51"/>
    <path id="Path_18813" data-name="Path 18813" d="M166.207,221.169a.324.324,0,0,1,.155.32.46.46,0,0,1-.253.3l-1.067.617a.748.748,0,0,1-.9-.043l-.9-.711a.378.378,0,0,1-.176-.321.389.389,0,0,1,.232-.3l1.066-.616a.879.879,0,0,1,.491-.115.775.775,0,0,1,.455.16Zm6.593,5.177a.329.329,0,0,1,.156.321.458.458,0,0,1-.254.3l-1.067.616a.746.746,0,0,1-.9-.043l-.9-.71a.381.381,0,0,1-.178-.322.39.39,0,0,1,.233-.3l1.067-.616a.885.885,0,0,1,.49-.114.777.777,0,0,1,.456.161Z" transform="translate(-72.578 -98.055)" fill="#1b2d51"/>
    <path id="Path_18814" data-name="Path 18814" d="M172.614,200.386a.78.78,0,0,1,.945.045l.281.222a.383.383,0,0,1,.143.187,1.12,1.12,0,0,1,.038.2l-.039,6.362.445-.257a11.517,11.517,0,0,1,2.3-1.023,8.239,8.239,0,0,1,2.3-.39,6.749,6.749,0,0,1,2.2.321,6.386,6.386,0,0,1,2.013,1.083,3.881,3.881,0,0,1,1.267,1.54,2.474,2.474,0,0,1,.113,1.6,3.767,3.767,0,0,1-.927,1.574,7.847,7.847,0,0,1-1.846,1.427,10.855,10.855,0,0,1-2.5,1.069,10.034,10.034,0,0,1-2.379.386,7.381,7.381,0,0,1-2.072-.2,4.5,4.5,0,0,1-1.586-.714.27.27,0,0,1-.13-.285.459.459,0,0,1,.239-.266l.311-.18a1.213,1.213,0,0,1,.421-.14,1.132,1.132,0,0,1,.614.133,4.482,4.482,0,0,0,1.6.451,6.04,6.04,0,0,0,1.569-.07,7.09,7.09,0,0,0,1.477-.429,11.264,11.264,0,0,0,1.309-.639,6.716,6.716,0,0,0,1.408-1.044,2.727,2.727,0,0,0,.716-1.12,1.677,1.677,0,0,0-.064-1.156,2.888,2.888,0,0,0-.936-1.128,4.294,4.294,0,0,0-2.986-1,7.564,7.564,0,0,0-3.3,1.085l-1.957,1.13a.746.746,0,0,1-.9-.043l-.282-.222a.633.633,0,0,1-.2-.231.714.714,0,0,1-.053-.24l0-6.238-6.714,3.876a.748.748,0,0,1-.9-.043l-.282-.222q-.433-.341.056-.623Z" transform="translate(-73.025 -89.131)" fill="#1b2d51"/>
    <path id="Path_18815" data-name="Path 18815" d="M205.882,201.372q.414.327-.075.608l-.423.244a.748.748,0,0,1-.9-.043l-11.226-8.817-1.381,4.338c-.1.282-.357.4-.764.339l-.509-.065a.724.724,0,0,1-.421-.181.3.3,0,0,1-.073-.328l1.646-5.161a.577.577,0,0,1,.176-.255,2.134,2.134,0,0,1,.27-.182l.423-.244a.746.746,0,0,1,.9.043Z" transform="translate(-84.608 -85.234)" fill="#1b2d51"/>
    <path id="Path_18816" data-name="Path 18816" d="M150.8,254.435l57-32.911a4.952,4.952,0,0,1,5.133.245l12.96,10.18c1.3,1.021,1.11,2.568-.424,3.454l-57,32.91a4.951,4.951,0,0,1-5.133-.245l-12.96-10.179c-1.3-1.022-1.11-2.568.424-3.454" transform="translate(-66.547 -98.334)" fill="#fff"/>
    <path id="Path_18817" data-name="Path 18817" d="M192.882,287.5l57-32.911a4.952,4.952,0,0,1,5.133.245l12.96,10.18c1.3,1.021,1.11,2.567-.424,3.454l-57,32.91a4.95,4.95,0,0,1-5.133-.245l-12.96-10.179c-1.3-1.022-1.11-2.567.424-3.454" transform="translate(-85.279 -113.051)" fill="#fff"/>
    <path id="Path_18818" data-name="Path 18818" d="M234.966,320.561l57-32.911a4.952,4.952,0,0,1,5.133.245l12.96,10.18c1.3,1.021,1.11,2.568-.424,3.454l-57,32.91a4.952,4.952,0,0,1-5.133-.245l-12.96-10.179c-1.3-1.022-1.11-2.568.425-3.454" transform="translate(-104.011 -127.768)" fill="#fff"/>
    <path id="Path_18819" data-name="Path 18819" d="M265.968,347.263h-.028a5.64,5.64,0,0,1-3.635-.963l-1.665-1.308a7.233,7.233,0,0,0-7.5-.358h0c-2.241,1.294-2.519,3.552-.619,5.045l1.488,1.169a2.514,2.514,0,0,1,1.038,2.677l.305.7a1.823,1.823,0,0,0,1.889.09l9.48-5.474a.719.719,0,0,0,.156-1.271,1.622,1.622,0,0,0-.912-.309m-1.679,6.127a1.371,1.371,0,0,0,.3-2.422l-3.9,2.25a3.472,3.472,0,0,0,3.6.172" transform="translate(-111.837 -153.008)" fill="#e0e0e0"/>
    <path id="Path_18820" data-name="Path 18820" d="M223.952,313.423h-.028a5.638,5.638,0,0,1-3.635-.963l-1.665-1.308a7.233,7.233,0,0,0-7.5-.358h0c-2.241,1.294-2.519,3.552-.619,5.045l1.488,1.169a2.515,2.515,0,0,1,1.038,2.677l.305.7a1.823,1.823,0,0,0,1.889.09l9.48-5.474a.719.719,0,0,0,.156-1.271,1.617,1.617,0,0,0-.912-.309m-1.679,6.127a1.371,1.371,0,0,0,.3-2.422l-3.9,2.25a3.472,3.472,0,0,0,3.6.172" transform="translate(-93.136 -137.946)" fill="#e0e0e0"/>
    <g id="Group_17614" data-name="Group 17614" transform="translate(52.035 70.733)" opacity="0.3">
      <g id="Group_17613" data-name="Group 17613">
        <g id="Group_17612" data-name="Group 17612" clip-path="url(#clip-path-9)">
          <path id="Path_18821" data-name="Path 18821" d="M236.269,197.816,219.1,184.328l-27.458,87.926,17.173,13.488Z" transform="translate(-137.334 -152.778)" fill="#fff"/>
          <path id="Path_18822" data-name="Path 18822" d="M320.852,270.129l-29.105-22.863-26.565,85.066,2.687,2.11a7.541,7.541,0,0,0,7.839.372l30.432-17.57Z" transform="translate(-170.068 -180.792)" fill="#fff"/>
          <path id="Path_18823" data-name="Path 18823" d="M132.454,234.674l27.458-87.926L137.44,129.1c-2.505-1.968-6.966-2.181-9.927-.473l-.42.245-11.912,6.875-21.407,68.55Z" transform="translate(-93.774 -127.47)" fill="#fff"/>
        </g>
      </g>
    </g>
    <path id="Path_18824" data-name="Path 18824" d="M310.923,29.663a.675.675,0,0,1,.942-.077l2.379,2.021a.676.676,0,0,1,.077.943l-1.62,1.906a.679.679,0,0,1-.942.077l-2.379-2.021a.676.676,0,0,1-.077-.942Zm8.741-10.288a.677.677,0,0,1,.942-.077l2.379,2.021a.678.678,0,0,1,.077.942L316.148,30.4a.677.677,0,0,1-.942.076l-2.379-2.021a.676.676,0,0,1-.077-.942Z" transform="translate(-137.602 -8.52)" fill="#ee2934"/>
    <path id="Path_18825" data-name="Path 18825" d="M299.443,13.879a.676.676,0,0,1,.769-.55l3.08.51a.679.679,0,0,1,.551.769l-.41,2.469a.678.678,0,0,1-.769.55l-3.08-.511a.678.678,0,0,1-.55-.769ZM301.65.561a.644.644,0,0,1,.273-.432.639.639,0,0,1,.5-.119L305.5.52a.643.643,0,0,1,.432.273.637.637,0,0,1,.119.5L304.3,11.822a.678.678,0,0,1-.769.55l-3.08-.511a.65.65,0,0,1-.432-.272.642.642,0,0,1-.118-.5Z" transform="translate(-133.097)" fill="#ee2934"/>
    <g id="Group_17617" data-name="Group 17617" transform="translate(165.927)" opacity="0.3">
      <g id="Group_17616" data-name="Group 17616">
        <g id="Group_17615" data-name="Group 17615" clip-path="url(#clip-path-10)">
          <path id="Path_18826" data-name="Path 18826" d="M299.443,13.879a.676.676,0,0,1,.769-.55l3.08.51a.679.679,0,0,1,.551.769l-.41,2.469a.678.678,0,0,1-.769.55l-3.08-.511a.678.678,0,0,1-.55-.769ZM301.65.561a.644.644,0,0,1,.273-.432.639.639,0,0,1,.5-.119L305.5.52a.643.643,0,0,1,.432.273.637.637,0,0,1,.119.5L304.3,11.822a.678.678,0,0,1-.769.55l-3.08-.511a.65.65,0,0,1-.432-.272.642.642,0,0,1-.118-.5Z" transform="translate(-299.024 0)" fill="#fff"/>
        </g>
      </g>
    </g>
    <g id="Group_17620" data-name="Group 17620" transform="translate(98.339 136.477)" opacity="0.2">
      <g id="Group_17619" data-name="Group 17619">
        <g id="Group_17618" data-name="Group 17618" clip-path="url(#clip-path-11)">
          <path id="Path_18827" data-name="Path 18827" d="M241.039,251.689c14.6,7.653,14.6,20.06,0,27.712s-38.27,7.653-52.869,0-14.6-20.06,0-27.712,38.27-7.653,52.869,0" transform="translate(-177.221 -245.95)"/>
        </g>
      </g>
    </g>
    <path id="Path_18828" data-name="Path 18828" d="M267.918,277.428s11.624-4.189,15.414-10.333c-.35-6.807-1.008-19.031-1.107-18.95l-21.908,2.268,4.629,19.207Z" transform="translate(-115.868 -110.45)" fill="#fff"/>
    <g id="Group_17623" data-name="Group 17623" transform="translate(144.449 137.695)" opacity="0.78">
      <g id="Group_17622" data-name="Group 17622">
        <g id="Group_17621" data-name="Group 17621" clip-path="url(#clip-path-12)">
          <path id="Path_18829" data-name="Path 18829" d="M267.918,277.428s11.624-4.189,15.414-10.333c-.35-6.807-1.008-19.031-1.107-18.95l-21.908,2.268,4.629,19.207Z" transform="translate(-260.317 -248.145)" fill="#1b2d51"/>
        </g>
      </g>
    </g>
    <path id="Path_18830" data-name="Path 18830" d="M244.138,267.239c2.054-3.559,3.839-12.1,3.845-15h-59.27s-1.1,12.806-1.011,17.956c0,.021.006.038.006.059l0,.01c1.237,3.055,4.149,4.932,10.788,7.812,12.285,5.323,28.956,4.511,37.1,1.174v-2.714s6.487-5.739,8.541-9.3" transform="translate(-83.544 -112.272)" fill="#1b2d51"/>
    <path id="Path_18831" data-name="Path 18831" d="M300.855,125.147c9.653,8.423,11.428,10.144,11.428,10.144,2.658-11.057,4.854-18.792,5.189-23.486s6.4-14.976,6.4-14.976c4.837,1.251,8.634,8.849,6.185,16.621-1.781,5.652,1.586,19.4-1.877,37.6-1.812,9.52-7.086,11.775-17.318,6-7.17-4.048-20.116-13.416-20.116-13.416l-9.826-32.683c8.226,1.494,10.527,5.988,19.931,14.194" transform="translate(-125.04 -43.099)" fill="#ffa8a7"/>
    <path id="Path_18832" data-name="Path 18832" d="M283.817,122.065c4.669.92,7.881,3.3,13.215,8.63s16.613,15.517,16.613,15.517a27.293,27.293,0,0,0-.5,15.765c2,7.678,5.088,8.97,5.088,8.97s-2.433.706-8.9-3.449-20.786-14.42-20.786-14.42Z" transform="translate(-126.328 -54.332)" fill="#1b2d51"/>
    <path id="Path_18833" data-name="Path 18833" d="M334.561,161.587s-1.128,17.628,4.291,22.537,8.858,1.677,8.858,1.677-.284,5.009-3.566,4.845-3.8.092-5.726.033-4.962-.329-6.332-4.184c-4.04-7.809-2.555-18.055.256-24.228.957.469.949-.879,2.22-.68" transform="translate(-146.708 -71.914)" fill="#fff"/>
    <g id="heand" transform="translate(182.896 89.652)" opacity="0.77">
      <path id="Path_18834" data-name="Path 18834" d="M334.561,161.587s-1.128,17.628,4.291,22.537,8.858,1.677,8.858,1.677-.284,5.009-3.566,4.845-3.8.092-5.726.033-4.962-.329-6.332-4.184c-4.04-7.809-2.555-18.055.256-24.228.957.469.949-.879,2.22-.68" transform="translate(-329.604 -161.566)" fill="#1b2d51"/>
    </g>
    <path id="Path_18835" data-name="Path 18835" d="M371.645,95.442a18.686,18.686,0,0,1-2,6.945c-2.5,6.313-3.9,5.569-6.378,10.424l-5.235-13.537c-2.282-4-.483-5.776,3.041-6.613Z" transform="translate(-158.907 -41.244)" fill="#f28f8f"/>
    <path id="Path_18836" data-name="Path 18836" d="M325.136,76.535a7.664,7.664,0,1,0-2.11-10.631,7.663,7.663,0,0,0,2.11,10.631" transform="translate(-143.204 -27.819)" fill="#455a64"/>
    <path id="Path_18837" data-name="Path 18837" d="M328.527,79.486l8.957-4.413a7.664,7.664,0,0,1-14.726,3.588c1.245,1.655,2.889,2.244,5.769.825" transform="translate(-143.661 -33.415)" fill="#37474f"/>
    <path id="Path_18838" data-name="Path 18838" d="M344.978,74.421l.4-6.154A78.839,78.839,0,0,0,362.643,82.38l-.163,2.461c-4.086-1.229-11.163-5.624-17.5-10.42" transform="translate(-153.551 -30.386)" fill="#37474f"/>
    <path id="Path_18839" data-name="Path 18839" d="M338.4,84.724l3.634-.277,7.005,4.617a10.7,10.7,0,0,0,10.515.714c-4.749-1.639-11.694-6.108-17.5-10.42Z" transform="translate(-150.622 -35.322)" fill="#455a64"/>
    <path id="Path_18840" data-name="Path 18840" d="M358.235,87.716c0,.062-.008.123-.012.181a1.007,1.007,0,0,1-.507.757l-1.267.624a.278.278,0,0,0-.034.525l.149.1a1.007,1.007,0,0,0,.909.06l1.288-.633a.984.984,0,0,0,.5-.757l.009-.17a1.027,1.027,0,0,0-.411-.818l-.151-.1c-.241-.161-.453-.057-.472.233" transform="translate(-158.565 -38.905)" fill="#ee2934"/>
    <path id="Path_18841" data-name="Path 18841" d="M362.543,90.182c0,.062-.008.122-.012.181a1.006,1.006,0,0,1-.506.757l-1.267.624a.278.278,0,0,0-.034.525l.149.1a1.007,1.007,0,0,0,.909.06l1.288-.633a.986.986,0,0,0,.5-.757l.008-.17a1.026,1.026,0,0,0-.411-.817l-.151-.1c-.241-.161-.453-.057-.472.232" transform="translate(-160.483 -40.003)" fill="#ee2934"/>
    <path id="Path_18842" data-name="Path 18842" d="M366.852,92.648c0,.062-.008.123-.012.181a1.006,1.006,0,0,1-.506.757l-1.267.624a.277.277,0,0,0-.034.524l.149.1a1.007,1.007,0,0,0,.909.06l1.288-.633a.983.983,0,0,0,.5-.757l.009-.171a1.028,1.028,0,0,0-.411-.817l-.151-.1c-.241-.161-.453-.057-.472.232" transform="translate(-162.401 -41.101)" fill="#ee2934"/>
    <path id="Path_18843" data-name="Path 18843" d="M333.314,56.732v0a4.148,4.148,0,0,0-2.036,3.375c-.026.175-.044.359-.058.55-.014.225-.021.447-.017.678a9.975,9.975,0,0,0,.077,1.153,12.677,12.677,0,0,0,.456,2.155,15.077,15.077,0,0,0,2.9,5.338,10.648,10.648,0,0,0,2.129,1.924c1.62,1.083,3.142,1.3,4.306.77l-3.995,1.973,0-.009a4.988,4.988,0,0,1-4.843-.5,10.526,10.526,0,0,1-2.041-1.823,15.033,15.033,0,0,1-2.984-5.437,12.444,12.444,0,0,1-.456-2.156,9.4,9.4,0,0,1-.078-1.151c0-.231,0-.458.018-.679.012-.188.034-.373.063-.552a4.942,4.942,0,0,1,2.491-3.594v0l.11-.057c.047-.022.095-.047.144-.068Z" transform="translate(-145.401 -25.251)" fill="#ee2934"/>
    <g id="sound" transform="translate(184.786 44.734)" opacity="0.1">
      <path id="Path_18844" data-name="Path 18844" d="M339.9,85.282l0-.009a4.99,4.99,0,0,1-4.843-.5,10.529,10.529,0,0,1-2.041-1.823l4.448-2.333a10.649,10.649,0,0,0,2.129,1.924c1.62,1.083,3.142,1.3,4.306.77Z" transform="translate(-333.009 -80.617)"/>
    </g>
    <path id="Path_18845" data-name="Path 18845" d="M341.351,57.207a13.853,13.853,0,0,1,5.542,11.247c-.13,2.007-.933,3.367-2.122,3.939-.021.012-.043.022-.065.032-1.163.528-2.686.313-4.305-.77a13.861,13.861,0,0,1-5.544-11.248c.132-1.989.922-3.346,2.094-3.925s2.736-.388,4.4.726" transform="translate(-149.037 -24.997)" fill="#ee2934"/>
    <g id="sound-2" data-name="sound" transform="translate(185.8 31.164)" opacity="0.2">
      <path id="Path_18846" data-name="Path 18846" d="M341.351,57.207a13.853,13.853,0,0,1,5.542,11.247c-.13,2.007-.933,3.367-2.122,3.939-.021.012-.043.022-.065.032-1.163.528-2.686.313-4.305-.77a13.861,13.861,0,0,1-5.544-11.248c.132-1.989.922-3.346,2.094-3.925s2.736-.388,4.4.726" transform="translate(-334.837 -56.161)"/>
    </g>
    <path id="Path_18847" data-name="Path 18847" d="M351.5,28.216s-.818,7.062,3.956,16.753A42.59,42.59,0,0,0,358.369,50c4.024,5.955,7.959,8.315,7.959,8.315-4.885-1-10.162-1.709-15.378-.493a59.623,59.623,0,0,0-6.014,1.761l0,0c-1.074.527-2.495.3-3.989-.7a10.868,10.868,0,0,1-2.667-2.637,14.317,14.317,0,0,1-1.313-2.166A12.414,12.414,0,0,1,335.582,48c.119-1.793.807-3.056,1.879-3.587l0,0a59.627,59.627,0,0,0,5.061-3.7c4.142-3.395,6.8-8.01,8.98-12.493" transform="translate(-149.36 -12.559)" fill="#ee2934"/>
    <g id="sound-3" data-name="sound" transform="translate(186.204 15.657)" opacity="0.6">
      <path id="Path_18848" data-name="Path 18848" d="M351.5,28.216s-.818,7.062,3.956,16.753A42.59,42.59,0,0,0,358.369,50c4.024,5.955,7.959,8.315,7.959,8.315-4.885-1-10.162-1.709-15.378-.493a59.623,59.623,0,0,0-6.014,1.761l0,0c-1.074.527-2.495.3-3.989-.7a10.868,10.868,0,0,1-2.667-2.637,14.317,14.317,0,0,1-1.313-2.166A12.414,12.414,0,0,1,335.582,48c.119-1.793.807-3.056,1.879-3.587l0,0a59.627,59.627,0,0,0,5.061-3.7c4.142-3.395,6.8-8.01,8.98-12.493" transform="translate(-335.564 -28.216)" fill="#fff"/>
    </g>
    <g id="sound-4" data-name="sound" transform="translate(188.917 37.414)" opacity="0.1">
      <path id="Path_18849" data-name="Path 18849" d="M360.546,67.452c4.024,5.955,7.959,8.315,7.959,8.315-4.886-1-10.162-1.709-15.378-.493a59.391,59.391,0,0,0-6.014,1.761l0,0c-1.075.527-2.495.3-3.989-.7a10.871,10.871,0,0,1-2.668-2.637c4.659-2.65,12.649-6.635,20.092-6.246" transform="translate(-340.455 -67.425)"/>
    </g>
    <path id="Path_18850" data-name="Path 18850" d="M377.307,17.41a29.452,29.452,0,0,1,8.862,10.041l0,0c2.964,5.278,4.672,11.392,4.32,16.723-.627,9.493-7.545,12.9-15.452,7.613a25.309,25.309,0,0,1-5.058-4.568,35.546,35.546,0,0,1-7.71-16.03q-.228-1.205-.345-2.394c-.033-.328-.059-.659-.078-.985v0c-.028-.464-.043-.924-.042-1.379,0-.474.014-.943.045-1.406.627-9.493,7.544-12.9,15.454-7.614" transform="translate(-161.042 -6.641)" fill="#ee2934"/>
    <g id="sound-5" data-name="sound" transform="translate(208.939 20.813)" opacity="0.1">
      <path id="Path_18851" data-name="Path 18851" d="M392.727,37.507c2.964,5.278,4.672,11.392,4.32,16.723-.627,9.493-7.546,12.9-15.452,7.613a25.307,25.307,0,0,1-5.058-4.568l0,0c1.333.221,3.906-.468,3.382-1.9a22.844,22.844,0,0,0,4.491,4.044A10.219,10.219,0,0,0,390.7,61.5,4.879,4.879,0,0,0,394.47,59.2a11.367,11.367,0,0,0,1.616-5.523c.3-4.534-1.083-9.811-3.5-14.515,0,0,.646-.185.143-1.651" transform="translate(-376.537 -37.507)"/>
    </g>
    <path id="Path_18852" data-name="Path 18852" d="M380.119,19.79a28.326,28.326,0,0,1,8.847,10.55c2.418,4.7,3.8,9.981,3.5,14.516a11.362,11.362,0,0,1-1.615,5.523,4.883,4.883,0,0,1-3.773,2.307,10.222,10.222,0,0,1-6.286-2.085,22.843,22.843,0,0,1-4.491-4.044q-.788-.907-1.519-1.9a33.189,33.189,0,0,1-2.342-3.682q-.218-.4-.426-.8c-.232-.443-.456-.893-.665-1.346a33.521,33.521,0,0,1-1.8-4.746c-.006-.016-.009-.038-.017-.055a29.722,29.722,0,0,1-.748-3.18q-.2-1.134-.294-2.243c-.027-.309-.047-.616-.06-.922q-.021-.55-.018-1.094c0-.351.018-.7.039-1.043a11.382,11.382,0,0,1,1.614-5.531c2.011-3.007,5.773-3.089,10.056-.224" transform="translate(-163.98 -7.878)" fill="#ee2934"/>
    <g id="sound-6" data-name="sound" transform="translate(204.429 9.821)" opacity="0.4">
      <path id="Path_18853" data-name="Path 18853" d="M380.119,19.79a28.326,28.326,0,0,1,8.847,10.55c2.418,4.7,3.8,9.981,3.5,14.516a11.362,11.362,0,0,1-1.615,5.523,4.883,4.883,0,0,1-3.773,2.307,10.222,10.222,0,0,1-6.286-2.085,22.843,22.843,0,0,1-4.491-4.044q-.788-.907-1.519-1.9a33.189,33.189,0,0,1-2.342-3.682q-.218-.4-.426-.8c-.232-.443-.456-.893-.665-1.346a33.521,33.521,0,0,1-1.8-4.746c-.006-.016-.009-.038-.017-.055a29.722,29.722,0,0,1-.748-3.18q-.2-1.134-.294-2.243c-.027-.309-.047-.616-.06-.922q-.021-.55-.018-1.094c0-.351.018-.7.039-1.043a11.382,11.382,0,0,1,1.614-5.531c2.011-3.007,5.773-3.089,10.056-.224" transform="translate(-368.409 -17.699)"/>
    </g>
    <path id="Path_18854" data-name="Path 18854" d="M377.875,41.26l4.654,9.231c-2.127,1.147-4.743,2.525-6.51,5.3-.168-.213-.33-.429-.491-.651a33.11,33.11,0,0,1-2.342-3.682q-.219-.4-.426-.8c-.232-.443-.456-.893-.665-1.346a33.48,33.48,0,0,1-1.8-4.746c-.005-.016-.009-.038-.017-.055-.068-.235-.135-.47-.2-.7,3.33.261,7.8-2.549,7.8-2.549" transform="translate(-164.723 -18.365)" fill="#37474f"/>
    <path id="Path_18855" data-name="Path 18855" d="M388.381,49.871c-.617.923-1.731.975-2.979.14l-.038-.026a8.205,8.205,0,0,1-3.277-6.651l0-.046a3.2,3.2,0,0,1,.461-1.555c.617-.922,1.731-.974,2.979-.14l.038.026a8.206,8.206,0,0,1,3.277,6.652l0,.045A3.2,3.2,0,0,1,388.381,49.871Z" transform="translate(-170.063 -18.25)" fill="#ee2934"/>
    <path id="Path_18856" data-name="Path 18856" d="M362.241,82.832s1.57-.465,2.123-.585c1.324-.286,2.305-.767,3.3.207.338.333.534.959.917,1.226.434.3,1.3.178,1.823.29a2.47,2.47,0,0,1,1.546.921c.247.347.319.986.653,1.194.42.262,1.135.214,1.609.419,1.064.463,1.363,1.879,1.757,2.85.425,1.048,1.137,2.5.684,3.625a4.952,4.952,0,0,1-1.736,2.033,26.948,26.948,0,0,1-2.683,1.835,1.641,1.641,0,0,1-2.15-.567c-.664-.861-1.929-.54-2.73-1.291-.346-.325-.449-.816-.788-1.149a2.613,2.613,0,0,1-.917-1.23c-.272-1.008.217-2.091.419-3.068a6.029,6.029,0,0,0-.277-2.691,4.213,4.213,0,0,0-1.042-2.073l-2.5-1.946" transform="translate(-161.234 -36.442)" fill="#ffa8a7"/>
    <path id="Path_18857" data-name="Path 18857" d="M346.616,106c.134-5.909-.224-8.451-.214-11.242.012-3.178,2.216-4.98,4.842-7.105a30.723,30.723,0,0,0,3.926-3.648c.981-1.091,1.851,2.278,1.654,3.543-.238,1.522-1.654,3.257-2.592,4.612-2.135,3.086,6.28,7.39,4.309,16.7C356.579,111.89,346.616,106,346.616,106" transform="translate(-154.185 -37.296)" fill="#ffa8a7"/>
    <path id="Path_18858" data-name="Path 18858" d="M251.148,144.433c-.516-18.449-8.689-23.509-11.91-24.843l-13.106-2.615c-4,.443-21.041,5.553-25.737,6.714-3.024.748-2.879,6.627-4.406,16.316-1.241,7.871-1.93,14.5-2.677,25.47-.626,9.194-1.363,19.666.264,32.675,20.73,6.326,40.623,9.352,56.02-2.46-.36-2.592,1.209-24.176,1.34-30.542s.353-15.721.214-20.715" transform="translate(-85.722 -52.066)" fill="#fafafa"/>
    <path id="Path_18859" data-name="Path 18859" d="M194.056,125.606l16.595-5.267s1.4,4.318,4.5,12.639,2.918,13.451,1.994,27.391-1.225,43.915-2.553,56.391c-6.205.288-23.214-4.665-28.292-11.539,0,0,1.756-25.267,2.55-39.53s-2.12-36.708,5.209-40.085" transform="translate(-82.921 -53.563)" fill="#fff"/>
    <g id="jecket" transform="translate(103.375 66.776)" opacity="0.72">
      <path id="Path_18860" data-name="Path 18860" d="M194.056,125.606l16.595-5.267s1.4,4.318,4.5,12.639,2.918,13.451,1.994,27.391-1.225,43.915-2.553,56.391c-6.205.288-23.214-4.665-28.292-11.539,0,0,1.756-25.267,2.55-39.53s-2.12-36.708,5.209-40.085" transform="translate(-186.296 -120.339)" fill="#ee2934"/>
    </g>
    <path id="Path_18861" data-name="Path 18861" d="M263.527,120.074c5.426,2.71,8.724,9.314,9.257,18.082s2.477,26.307,2.787,32.919c1.348,28.724,2.813,36.444,2.813,36.444,2.7-1.384,6.047-3.031,6.527-6.982-.606-6.149-.986-29.648-1.034-35.137s-.357-18.176-.565-24.885-1.817-15.166-7.432-19.714a55.769,55.769,0,0,0-12.152-2.22Z" transform="translate(-117.297 -52.78)" fill="#fff"/>
    <g id="jecket-2" data-name="jecket" transform="translate(146.23 65.8)" opacity="0.72">
      <path id="Path_18862" data-name="Path 18862" d="M263.527,120.074c5.426,2.71,8.724,9.314,9.257,18.082s2.477,26.307,2.787,32.919c1.348,28.724,2.813,36.444,2.813,36.444,2.7-1.384,6.047-3.031,6.527-6.982-.606-6.149-.986-29.648-1.034-35.137s-.357-18.176-.565-24.885-1.817-15.166-7.432-19.714a55.769,55.769,0,0,0-12.152-2.22Z" transform="translate(-263.527 -118.581)" fill="#ee2934"/>
    </g>
    <path id="Path_18863" data-name="Path 18863" d="M273.166,141.783c-.184-6.433-2.753-18.148-9.431-21.1a5.545,5.545,0,0,1-.222-2.053l.367-3.3a28.275,28.275,0,0,1,5.611,3.407c2.794,2.2,7.363,8.81,8.232,13.886-2.749-2.809-4.312,1.2-4.556,9.159" transform="translate(-117.283 -51.334)" fill="#ee2934"/>
    <g id="colar_2" data-name="colar 2" transform="translate(146.214 63.997)" opacity="0.45">
      <path id="Path_18864" data-name="Path 18864" d="M273.166,141.783c-.184-6.433-2.753-18.148-9.431-21.1a5.545,5.545,0,0,1-.222-2.053l.367-3.3a28.275,28.275,0,0,1,5.611,3.407c2.794,2.2,7.363,8.81,8.232,13.886-2.749-2.809-4.312,1.2-4.556,9.159" transform="translate(-263.497 -115.331)" fill="#fff"/>
    </g>
    <path id="Path_18865" data-name="Path 18865" d="M221.958,70.644c-1.178-4.378-6.047-8.6-8.409-12.29-2.279-3.558-3.7-6.351-3.815-9.889-.069-2.1.976-5.043,2.464-5.782a9.717,9.717,0,0,1,5.961-12.744,33.093,33.093,0,0,0,4.156-1.6c1.61-.861,1.861-2.246,3.1-3.522,2.14-2.2,6.057-2.616,7.835.235,1.359-2.151,3.466-2.3,5.954-1.913a4.163,4.163,0,0,1,3.623,4.384c3.073-2.125,6.271-.116,6.75,1.765.354,1.387.167,2.6,1.209,3.778,1.173,1.323,3.133,1.112,3.62-.093.525,1.969-.11,3.567-2.291,3.663a4.567,4.567,0,0,1,.928,3.764,4.164,4.164,0,0,1-3.476,3.216,6.363,6.363,0,0,1-3.011,5.688c-3.136,1.878-6.72,2.732-10.188,3.8l-4.117,1.269c-.24.074-1.5.271-1.63.5l-8.664,15.765" transform="translate(-93.352 -10.226)" fill="#263238"/>
    <path id="Path_18866" data-name="Path 18866" d="M217.52,76.322a4.33,4.33,0,0,0,5.233-.653l.362,7.84L223.3,92s8.893,9.49,20.935,8.916c.609-2.7-.271-7.457-2.212-9.785l-.3-6.946a42.948,42.948,0,0,0,5.27-.739,9.275,9.275,0,0,0,6.766-7.723,40.253,40.253,0,0,0-.969-15.179,13.094,13.094,0,0,1-.537-3.647,17.291,17.291,0,0,0-1.832-7.756c-4.133-2.728-15.055-2.339-22.857,3.48,2.175,4.053,1.468,8.452-1.937,10.67.294,1.315.779,4.66-1.414,4.805-1.579.1-1.872-1.862-3.654-3.449-1.819-1.62-5.6-1.7-6.82,1.009-1.7,3.785.165,8.942,3.786,10.663" transform="translate(-94.85 -21.147)" fill="#ffa8a7"/>
    <path id="Path_18867" data-name="Path 18867" d="M250.976,105.336c-5.6-.128-9.858-.33-13.122-4.066a34.784,34.784,0,0,1-3.958-6.243,27.123,27.123,0,0,0,3.153,8c1.635,2.427,5.259,4.234,14.006,4.158Z" transform="translate(-104.108 -42.297)" fill="#f28f8f"/>
    <path id="Path_18868" data-name="Path 18868" d="M254.239,73.33a1.565,1.565,0,1,1-1.691-1.5,1.591,1.591,0,0,1,1.691,1.5" transform="translate(-111.772 -31.97)" fill="#263238"/>
    <path id="Path_18869" data-name="Path 18869" d="M251.014,65.6l-3.236,2.035a2.005,2.005,0,0,1,.627-2.7,1.865,1.865,0,0,1,2.609.669" transform="translate(-110.163 -28.775)" fill="#263238"/>
    <path id="Path_18870" data-name="Path 18870" d="M277.008,63.416l-3.794-.664a1.848,1.848,0,0,1,2.16-1.592,2.023,2.023,0,0,1,1.634,2.256" transform="translate(-121.608 -27.209)" fill="#263238"/>
    <path id="Path_18871" data-name="Path 18871" d="M276.938,70.442a1.565,1.565,0,1,1-1.691-1.5,1.59,1.59,0,0,1,1.691,1.5" transform="translate(-121.875 -30.685)" fill="#263238"/>
    <path id="Path_18872" data-name="Path 18872" d="M270.439,76.5l-5.189,2.92-2.681-10.465c1.944-.911,5,3.726,7.87,7.545" transform="translate(-116.87 -30.64)" fill="#f28f8f"/>
    <path id="Path_18873" data-name="Path 18873" d="M257.826,93.367l6.645.773a3.287,3.287,0,0,1-3.63,3.039,3.5,3.5,0,0,1-3.015-3.812" transform="translate(-114.752 -41.558)" fill="#b16668"/>
    <path id="Path_18874" data-name="Path 18874" d="M258.791,95.145a3.654,3.654,0,0,0-.806.088,3.458,3.458,0,0,0,2.933,2.738,3.208,3.208,0,0,0,1.07-.069,3.063,3.063,0,0,0-3.2-2.756" transform="translate(-114.83 -42.349)" fill="#f28f8f"/>
    <path id="Path_18875" data-name="Path 18875" d="M234.427,142.814c-.388-12.63-5.561-13.759-7.149-9.766a25.491,25.491,0,0,1-3.284-15.4,46.611,46.611,0,0,0,2.489-4.076,2.514,2.514,0,0,1,1.412-1.182l.152,3.175s.391,3.7,3.7,8.636c2.43,3.621,3,8.022,2.68,18.617" transform="translate(-99.63 -50.023)" fill="#ee2934"/>
    <g id="colar" transform="translate(124.206 62.363)" opacity="0.45">
      <path id="Path_18876" data-name="Path 18876" d="M234.427,142.814c-.388-12.63-5.561-13.759-7.149-9.766a25.491,25.491,0,0,1-3.284-15.4,46.611,46.611,0,0,0,2.489-4.076,2.514,2.514,0,0,1,1.412-1.182l.152,3.175s.391,3.7,3.7,8.636c2.43,3.621,3,8.022,2.68,18.617" transform="translate(-223.835 -112.386)" fill="#fff"/>
    </g>
    <path id="Path_18877" data-name="Path 18877" d="M179.677,127.92c-10.069,3.046-14.563,4.727-17.837,11.239S152.871,161.8,149.7,171.578c-2.722,8.378-4.211,16.009-2.4,19.867l19.608-6.38,10.351-25.342s6.726-15.725,2.427-31.8" transform="translate(-65.207 -56.938)" fill="#1b2d51"/>
    <path id="Path_18878" data-name="Path 18878" d="M164.836,211.083c1.432-.18,2.862.043,4.226-.458a1.918,1.918,0,0,0,.669-3.6,12.641,12.641,0,0,0-6.386-3.3,19.713,19.713,0,0,0-13.593,2.135c-2.46,1.325-5.469,3.122-5.642,6.255a11.3,11.3,0,0,1-.128,2.809c-.19.6-.586,1.114-.8,1.7a5.957,5.957,0,0,0-.28,1.666,4.427,4.427,0,0,0,.181,2.019c.17.4.454.75.627,1.152a15.6,15.6,0,0,1,.431,1.915c.369,1.291,1.768,2.778,2.935,1.482,1.06-1.176,1.422-2.781,2.116-4.166a12.143,12.143,0,0,1,3.722-3.9,37.193,37.193,0,0,1,6.147-3.608,24.076,24.076,0,0,1,5.122-1.989,6.635,6.635,0,0,1,.658-.115" transform="translate(-63.59 -90.497)" fill="#fff"/>
    <g id="head" transform="translate(79.275 112.82)" opacity="0.77">
      <path id="Path_18879" data-name="Path 18879" d="M164.836,211.083c1.432-.18,2.862.043,4.226-.458a1.918,1.918,0,0,0,.669-3.6,12.641,12.641,0,0,0-6.386-3.3,19.713,19.713,0,0,0-13.593,2.135c-2.46,1.325-5.469,3.122-5.642,6.255a11.3,11.3,0,0,1-.128,2.809c-.19.6-.586,1.114-.8,1.7a5.957,5.957,0,0,0-.28,1.666,4.427,4.427,0,0,0,.181,2.019c.17.4.454.75.627,1.152a15.6,15.6,0,0,1,.431,1.915c.369,1.291,1.768,2.778,2.935,1.482,1.06-1.176,1.422-2.781,2.116-4.166a12.143,12.143,0,0,1,3.722-3.9,37.193,37.193,0,0,1,6.147-3.608,24.076,24.076,0,0,1,5.122-1.989,6.635,6.635,0,0,1,.658-.115" transform="translate(-142.865 -203.317)" fill="#1b2d51"/>
    </g>
    <path id="Path_18880" data-name="Path 18880" d="M174.049,205.91c-1.857,2.222-7.464,2.883-11.409,3.983s-8.8,2.98-11.5,7.1c-2.375,3.628-4.882,6.612-3.7,9.463.815,1.963,5.307,3.01,10.577,3.044s10-4.762,15.554-8.127c4.765-2.886,6.95-4.228,6.95-4.228Z" transform="translate(-65.493 -91.651)" fill="#f28f8f"/>
    <path id="Path_18881" data-name="Path 18881" d="M191.612,203.72c-1.716-1.786-2-3.575-4.568-5.1s-4.2-1.5-6.937-2.965-4.959-2.223-7.056-1.586-1.793,1.839-.245,2.856,4.211,2.361,6.052,3.759,3.652,2.207,3.612,4.573a105.282,105.282,0,0,1-1.042,11.189c-.585,3.955-1.431,7.151-1.141,7.584s1.987.661,3.074-1.534,2.6-10.239,2.6-10.239.663,5.614.9,9.477.315,6.81.407,7.636,2.839.244,3.334-2.656.087-11.537.087-11.537,2.2,3.969,3.611,6.542,3.156,6.074,3.736,6.941,2.342-.617,1.969-2.937-3.233-8.042-3.233-8.042,3.514,3.816,4.135,4.2,2.534.117,1.927-2.45c-.406-1.715-1.474-2.824-4.293-6.172s-2.758-4.712-3.625-6.236c-1.138-2-2.055-2-3.3-3.3" transform="translate(-76.362 -86.278)" fill="#ffa8a7"/>
    <path id="Path_18882" data-name="Path 18882" d="M194.778,213.325c2.84,1.323,5.672.089,6.073-.615-.226,1.969-4.181,3.049-6.073.615" transform="translate(-86.696 -94.678)" fill="#f28f8f"/>
    <path id="Path_18883" data-name="Path 18883" d="M221.148,236.185a1.3,1.3,0,0,1-1.8-.158c-.714-.619-2.456-2.65-3.246-3.589s-3.5-4.265-3.5-4.265l2.434,4.787s3.514,3.816,4.135,4.2a1.4,1.4,0,0,0,1.977-.971" transform="translate(-94.63 -101.561)" fill="#f28f8f"/>
    <path id="Path_18884" data-name="Path 18884" d="M413.634,125.284a.3.3,0,0,1-.309-.236l-2.2-10.054a.306.306,0,0,1,.04-.228.3.3,0,0,1,.19-.132l3.329-.729a.3.3,0,0,1,.36.23l2.2,10.054a.305.305,0,0,1-.041.228.3.3,0,0,1-.189.132l-3.329.729a.268.268,0,0,1-.051.007m-1.856-10.125,2.071,9.464,2.74-.6-2.072-9.465Zm6.028,7.991a.3.3,0,0,1-.309-.237l-1.892-8.639a.3.3,0,0,1,.014-.176c.565-1.417,1.431-3.661,1.493-4.037a12.091,12.091,0,0,0-.524-2.421c-.073-.259-.13-.461-.151-.56-.027-.125-.034-.44.486-.666a2.3,2.3,0,0,1,2.751.781,6.258,6.258,0,0,1,1.234,3.726l4.246-.929a1.761,1.761,0,0,1,2.051,1.378,1.868,1.868,0,0,1-.222,1.394,1.637,1.637,0,0,1,.976,1.214,1.82,1.82,0,0,1-.65,1.781,2.514,2.514,0,0,1,.373.9,2.023,2.023,0,0,1-.864,1.839,3.305,3.305,0,0,1,.29.8,1.923,1.923,0,0,1-1.61,2.179l-7.642,1.672a.27.27,0,0,1-.051.007m-1.591-8.915,1.807,8.254,7.346-1.608a1.342,1.342,0,0,0,1.151-1.46,2.631,2.631,0,0,0-.378-.892.3.3,0,0,1,.18-.472,1.357,1.357,0,0,0,.773-1.274,1.55,1.55,0,0,0-.431-.86.3.3,0,0,1-.112-.274.3.3,0,0,1,.173-.238,1.18,1.18,0,0,0,.647-1.3,1.006,1.006,0,0,0-.92-.86.3.3,0,0,1-.2-.521,1.3,1.3,0,0,0,.367-1.228,1.152,1.152,0,0,0-1.332-.917l-4.618,1.01a.3.3,0,0,1-.258-.063.3.3,0,0,1-.108-.242,5.731,5.731,0,0,0-1.121-3.746,1.63,1.63,0,0,0-1.33-.692,1.455,1.455,0,0,0-.8.183c.027.1.07.26.123.447a9.555,9.555,0,0,1,.539,2.683c-.088.528-1.243,3.445-1.493,4.075" transform="translate(-182.99 -47.288)" fill="#e0e0e0"/>
    <path id="Path_18885" data-name="Path 18885" d="M19.034,358.251l-3.954-.865a.358.358,0,0,1-.273-.427l2.614-11.939a.354.354,0,0,1,.427-.273l3.953.865a.358.358,0,0,1,.273.427l-2.613,11.94a.359.359,0,0,1-.367.281.317.317,0,0,1-.06-.008m-.99-12.728-2.459,11.239,3.253.711,2.46-11.239Zm-3.965,10.193-9.074-1.987a2.283,2.283,0,0,1-1.912-2.588,3.92,3.92,0,0,1,.343-.948,2.4,2.4,0,0,1-1.025-2.184,2.982,2.982,0,0,1,.442-1.064,2.16,2.16,0,0,1-.771-2.115,1.943,1.943,0,0,1,1.158-1.442,2.223,2.223,0,0,1-.263-1.656A2.09,2.09,0,0,1,5.413,340.1l5.042,1.1a7.433,7.433,0,0,1,1.465-4.425,2.732,2.732,0,0,1,3.266-.928c.618.27.609.644.578.792-.026.118-.093.358-.179.665a14.245,14.245,0,0,0-.622,2.876c.073.446,1.1,3.111,1.772,4.793a.377.377,0,0,1,.017.21l-2.246,10.258a.359.359,0,0,1-.367.281.318.318,0,0,1-.06-.008m.176-15.418a11.349,11.349,0,0,1,.64-3.187c.062-.222.114-.407.145-.53a1.728,1.728,0,0,0-.953-.217,1.932,1.932,0,0,0-1.578.822,6.793,6.793,0,0,0-1.331,4.448.359.359,0,0,1-.129.288.352.352,0,0,1-.306.075l-5.485-1.2a1.369,1.369,0,0,0-1.581,1.09,1.537,1.537,0,0,0,.436,1.458.358.358,0,0,1-.237.618,1.2,1.2,0,0,0-1.094,1.021,1.4,1.4,0,0,0,.769,1.55.355.355,0,0,1,.2.282.36.36,0,0,1-.132.326,1.829,1.829,0,0,0-.512,1.02,1.611,1.611,0,0,0,.918,1.513.356.356,0,0,1,.258.223.36.36,0,0,1-.044.338,3.086,3.086,0,0,0-.449,1.059,1.593,1.593,0,0,0,1.366,1.735l8.724,1.909,2.146-9.8c-.3-.747-1.669-4.212-1.773-4.839" transform="translate(-0.907 -149.396)" fill="#e0e0e0"/>
    <path id="Path_18886" data-name="Path 18886" d="M390.066,237.307s-.718-4.051-.694-4.642a17.581,17.581,0,0,1,1.388-3.11c.179-.4-1.66-1.4-2.911-.218a6.46,6.46,0,0,0-2.093,3.878l-4.638-2.071a1.56,1.56,0,0,0-2.03.838,1.718,1.718,0,0,0,.148,1.69,1.418,1.418,0,0,0-1.51.889,1.6,1.6,0,0,0,.5,1.908,1.933,1.933,0,0,0-.794.969,1.744,1.744,0,0,0,.7,1.937,3.118,3.118,0,0,0-.671.964,1.76,1.76,0,0,0,1.056,2.216l7.674,3.427Z" transform="translate(-167.958 -101.83)" fill="#e0e0e0"/>
    <path id="Path_18887" data-name="Path 18887" d="M394.328,254.686l3.349,1.493,4.5-10.1-3.342-1.493Zm1.717-.826a.654.654,0,1,1,.654.654.651.651,0,0,1-.654-.654" transform="translate(-175.517 -108.866)" fill="#e0e0e0"/>
    <path id="Path_18888" data-name="Path 18888" d="M16.688,136.129s.718-4.051.694-4.642a17.623,17.623,0,0,0-1.388-3.11c-.179-.4,1.66-1.4,2.911-.218A6.461,6.461,0,0,1,21,132.039l4.638-2.071a1.56,1.56,0,0,1,2.03.838,1.718,1.718,0,0,1-.148,1.69,1.418,1.418,0,0,1,1.51.889,1.6,1.6,0,0,1-.5,1.908,1.933,1.933,0,0,1,.794.969,1.744,1.744,0,0,1-.7,1.937,3.118,3.118,0,0,1,.671.964,1.76,1.76,0,0,1-1.056,2.216l-7.674,3.428Z" transform="translate(-7.114 -56.795)" fill="#e0e0e0"/>
    <path id="Path_18889" data-name="Path 18889" d="M12.384,143.408,9.042,144.9l4.5,10.1,3.349-1.493Zm2.14,9.927a.654.654,0,1,1,.654-.654.651.651,0,0,1-.654.654" transform="translate(-4.024 -63.832)" fill="#e0e0e0"/>
  </g>
</svg>
