<svg id="news_Logo" data-name="news Logo" xmlns="http://www.w3.org/2000/svg" width="127.403" height="127.469" viewBox="0 0 127.403 127.469">
  <path id="Path_17617" data-name="Path 17617" d="M127.372,60.353a200.363,200.363,0,0,0-2.123-26.735,83.457,83.457,0,0,0-3.257-13.877c-1.272-3.754-3.127-7.765-6.317-10.291a20.3,20.3,0,0,0-4.11-2.456A45.155,45.155,0,0,0,104.788,4.5,128.645,128.645,0,0,0,79.7.574L77.356.429A218.7,218.7,0,0,0,49.662.445q-1.249.114-2.5.128c-.159,0-.3.076-.479.087A145.131,145.131,0,0,0,27.673,3.249a70.883,70.883,0,0,0-7.492,2.013,29.246,29.246,0,0,0-8.228,4.02,10.555,10.555,0,0,0-1.917,1.789l-.757.9a2.091,2.091,0,0,0-.419.619l-.7,1.034A37.392,37.392,0,0,0,4.516,22.57Q3.4,26.546,2.662,30.614A166.428,166.428,0,0,0,.2,54.627C.127,56.795.036,58.915.014,61.06A215.179,215.179,0,0,0,1.229,87.035c.043.387.153.85.183,1.294q.049.749.147,1.493a92.093,92.093,0,0,0,3.9,18.053,28.834,28.834,0,0,0,3.552,7.287,17.371,17.371,0,0,0,7.638,5.7A67.069,67.069,0,0,0,31.9,125.041a157.822,157.822,0,0,0,16.5,1.894,4.392,4.392,0,0,0,.533.013l.575.077c2.078.114,4.159.253,6.238.321,7.333.24,14.626.118,21.951-.3a4.651,4.651,0,0,0,.581-.087l.684-.018A157.6,157.6,0,0,0,95.654,125a63.152,63.152,0,0,0,15.8-4.464,16.888,16.888,0,0,0,6.77-5.143,25.167,25.167,0,0,0,2.954-5.5,73.419,73.419,0,0,0,3.949-15.219A169.106,169.106,0,0,0,127,77.049c.313-5.77.472-11.395.369-16.7M3.767,90.31h.007l0,0-.011,0M4.893,38.994l0,0L4.9,39l-.008-.008m43.981,87.489h.005a.026.026,0,0,1,.012,0l-.017-.005m73.487-38.227.009,0h.008l-.017,0m.022-49.582h-.01l.018,0-.008,0m.085,50.966-.013.011a.089.089,0,0,0,.014-.012v0" transform="translate(0 0.002)" fill="#fff"/>
  <g id="news_logo-2" data-name="news logo" transform="translate(17 37.999)">
    <path id="Path_117" data-name="Path 117" d="M138.223,28.157c4.042,0,8.084.008,12.126,0a2.592,2.592,0,0,0,2.562-3.492,2.533,2.533,0,0,0-2.675-1.742q-5.673-.009-11.347,0c-.667,0-1.335.014-2,0a2.421,2.421,0,0,1-2.437-2.441,2.41,2.41,0,0,1,2.293-2.674c.3-.023.593-.024.889-.024q10.513,0,21.026-.005a6.622,6.622,0,0,0,1.437-.109,2.464,2.464,0,0,0,1.9-2.749,2.426,2.426,0,0,0-2.433-2.339c-2.929-.025-5.859-.011-8.788-.02a6.022,6.022,0,0,1-.995-.076A2.49,2.49,0,0,1,147.6,9.832a2.484,2.484,0,0,1,2.573-2.455q3.7-.029,7.4.005a2.089,2.089,0,0,0,1.54-.607A24.253,24.253,0,0,1,174.09.088c10.8-.769,19.164,3.492,24.648,12.845,8.775,14.965.043,33.8-16.544,37.545a25.477,25.477,0,0,1-13.753-.661,24.628,24.628,0,0,1-9.381-5.566,1.94,1.94,0,0,0-1.438-.572q-7.954.022-15.908.008a2.568,2.568,0,0,1-.4-5.12c.278-.011.555-.03.833-.031q6.9-.007,13.794-.011a2.471,2.471,0,0,0,2.669-1.646,2.543,2.543,0,0,0-2.445-3.544c-2.187-.033-4.376-.011-6.563-.011q-11.458,0-22.917-.014a5.427,5.427,0,0,1-1.376-.137,2.41,2.41,0,0,1-1.76-2.874,2.372,2.372,0,0,1,2.492-2.134c3.578-.011,7.157,0,10.735,0h1.446Z" transform="translate(-109.759 0)" fill="#ee2934"/>
    <path id="Path_118" data-name="Path 118" d="M10.525,159.7c2.593,0,5.187.012,7.78-.006a2.246,2.246,0,0,1,2.232,1.25,2.7,2.7,0,0,1-.146,2.846,2.174,2.174,0,0,1-1.875,1.018q-8.086.014-16.172,0A2.4,2.4,0,0,1,0,162.218,2.435,2.435,0,0,1,2.355,159.7l.111,0h8.058" transform="translate(0 -141.902)" fill="#ee2934"/>
    <path id="Path_119" data-name="Path 119" d="M210.385,71.258c-1.3,0-2.6.06-3.891-.014a2.488,2.488,0,0,1-2.378-3.288,2.324,2.324,0,0,1,2.314-1.812c2.483-.045,4.968-.054,7.451-.005a2.291,2.291,0,0,1,2.245,1.615,2.466,2.466,0,0,1-2.075,3.453c-1.217.084-2.444.028-3.667.028v.025" transform="translate(-181.292 -58.741)" fill="#ee2934"/>
    <path id="Path_120" data-name="Path 120" d="M485.641,97.085,510,85.133,497.554,99.339l8.125,5.792-24.008,12.161,12.279-14.428Z" transform="translate(-428.018 -75.65)" fill="#1b2d51"/>
  </g>
</svg>
